<svg width="220" height="220" viewBox="0 0 220 220" fill="none" xmlns="http://www.w3.org/2000/svg">
<path fill-rule="evenodd" clip-rule="evenodd" d="M40.0781 14.3139C55.1665 29.3954 55.3779 54.7605 55.3797 55.0394C55.3816 54.7605 55.593 29.3954 70.6814 14.3139C85.8532 -0.851008 110.322 0.12427 110.322 0.12427C110.322 0.12427 110.192 25.6867 95.0205 40.852C81.7201 54.1461 61.2751 55.0368 56.4333 55.054C61.2751 55.0712 81.7201 55.9619 95.0205 69.256C110.192 84.4209 110.322 109.984 110.322 109.984C110.322 109.984 85.8532 110.959 70.6814 95.794C55.593 80.7126 55.3816 55.3475 55.3797 55.0686C55.3779 55.3475 55.1665 80.7126 40.0781 95.794C24.9066 110.959 0.437752 109.984 0.437752 109.984C0.437752 109.984 0.567205 84.4209 15.739 69.256C29.039 55.9619 49.484 55.0716 54.3258 55.054C49.484 55.0368 29.0394 54.1461 15.739 40.852C0.567205 25.6867 0.437378 0.12427 0.437378 0.12427C0.437378 0.12427 24.9063 -0.850634 40.0781 14.3139ZM54.6236 55.0544C55.1126 55.0562 55.3771 55.0667 55.3797 55.0667C55.3816 55.0667 55.6461 55.0562 56.1359 55.0544C55.6461 55.0525 55.3816 55.042 55.3797 55.042C55.3771 55.042 55.1126 55.0525 54.6236 55.0544Z" fill="#D9D9D9"/>
<path fill-rule="evenodd" clip-rule="evenodd" d="M148.982 14.3139C164.07 29.3954 164.282 54.7605 164.283 55.0394C164.285 54.7605 164.497 29.3954 179.585 14.3139C194.757 -0.851008 219.226 0.12427 219.226 0.12427C219.226 0.12427 219.096 25.6867 203.924 40.852C190.624 54.1461 170.179 55.0368 165.337 55.054C170.179 55.0712 190.624 55.9619 203.924 69.256C219.096 84.4209 219.226 109.984 219.226 109.984C219.226 109.984 194.757 110.959 179.585 95.794C164.497 80.7126 164.285 55.3475 164.283 55.0686C164.282 55.3475 164.07 80.7126 148.982 95.794C133.81 110.959 109.341 109.984 109.341 109.984C109.341 109.984 109.471 84.4209 124.643 69.256C137.943 55.9619 158.388 55.0716 163.229 55.054C158.388 55.0368 137.943 54.1461 124.643 40.852C109.471 25.6867 109.341 0.12427 109.341 0.12427C109.341 0.12427 133.81 -0.850634 148.982 14.3139ZM163.527 55.0544C164.016 55.0562 164.281 55.0667 164.283 55.0667C164.285 55.0667 164.55 55.0562 165.04 55.0544C164.55 55.0525 164.285 55.042 164.283 55.042C164.281 55.042 164.016 55.0525 163.527 55.0544Z" fill="#D9D9D9"/>
<path fill-rule="evenodd" clip-rule="evenodd" d="M14.6397 180.24C29.7211 165.152 55.0862 164.941 55.3652 164.939C55.0862 164.937 29.7211 164.725 14.6397 149.637C-0.525233 134.465 0.450045 109.996 0.450045 109.996C0.450045 109.996 26.0125 110.126 41.1777 125.298C54.4719 138.598 55.3625 159.043 55.3798 163.885C55.397 159.043 56.2876 138.598 69.5818 125.298C84.7467 110.126 110.309 109.996 110.309 109.996C110.309 109.996 111.285 134.465 96.1198 149.637C81.0384 164.725 55.6733 164.937 55.3944 164.939C55.6733 164.941 81.0384 165.152 96.1198 180.24C111.285 195.412 110.309 219.881 110.309 219.881C110.309 219.881 84.7467 219.751 69.5818 204.579C56.2876 191.279 55.3974 170.834 55.3798 165.993C55.3625 170.834 54.4719 191.279 41.1777 204.579C26.0125 219.751 0.450045 219.881 0.450045 219.881C0.450045 219.881 -0.524859 195.412 14.6397 180.24ZM55.3801 165.695C55.382 165.206 55.3925 164.941 55.3925 164.939C55.3925 164.937 55.382 164.672 55.3801 164.183C55.3783 164.672 55.3678 164.937 55.3678 164.939C55.3678 164.941 55.3783 165.206 55.3801 165.695Z" fill="#D9D9D9"/>
<path fill-rule="evenodd" clip-rule="evenodd" d="M123.543 180.24C138.625 165.152 163.99 164.941 164.269 164.939C163.99 164.937 138.625 164.725 123.543 149.637C108.378 134.465 109.354 109.996 109.354 109.996C109.354 109.996 134.916 110.126 150.081 125.298C163.375 138.598 164.266 159.043 164.283 163.885C164.301 159.043 165.191 138.598 178.485 125.298C193.65 110.126 219.213 109.996 219.213 109.996C219.213 109.996 220.188 134.465 205.023 149.637C189.942 164.725 164.577 164.937 164.298 164.939C164.577 164.941 189.942 165.152 205.023 180.24C220.188 195.412 219.213 219.881 219.213 219.881C219.213 219.881 193.65 219.751 178.485 204.579C165.191 191.279 164.301 170.834 164.283 165.993C164.266 170.834 163.375 191.279 150.081 204.579C134.916 219.751 109.354 219.881 109.354 219.881C109.354 219.881 108.379 195.412 123.543 180.24ZM164.284 165.695C164.286 165.206 164.296 164.941 164.296 164.939C164.296 164.937 164.286 164.672 164.284 164.183C164.282 164.672 164.271 164.937 164.271 164.939C164.271 164.941 164.282 165.206 164.284 165.695Z" fill="#D9D9D9"/>
</svg>
