<svg width="221" height="220" viewBox="0 0 221 220" fill="none" xmlns="http://www.w3.org/2000/svg">
<path d="M0.835083 73.4362C20.2939 73.4362 38.9557 81.1542 52.7152 94.8925C66.4747 108.631 74.2046 127.264 74.2046 146.693H0.835083V73.4362Z" fill="#D9D9D9"/>
<path d="M0.835083 146.693C20.2939 146.693 38.9557 154.411 52.7152 168.149C66.4747 181.887 74.2046 200.52 74.2046 219.949H0.835083V146.693Z" fill="#D9D9D9"/>
<path d="M74.2048 0.179701H147.574V73.4363C128.116 73.4363 109.454 65.7182 95.6943 51.9799C81.9348 38.2416 74.2048 19.6085 74.2048 0.179701Z" fill="#D9D9D9"/>
<path d="M74.2048 73.4362C93.6637 73.4362 112.325 81.1542 126.085 94.8925C139.844 108.631 147.574 127.264 147.574 146.693H74.2048V73.4362Z" fill="#D9D9D9"/>
<path d="M74.2048 146.693C93.6637 146.693 112.325 154.411 126.085 168.149C139.844 181.887 147.574 200.52 147.574 219.949H74.2048V146.693Z" fill="#D9D9D9"/>
<path d="M147.235 0.179701H220.605V73.4363C201.146 73.4363 182.484 65.7182 168.725 51.9799C154.965 38.2416 147.235 19.6085 147.235 0.179701Z" fill="#D9D9D9"/>
<path d="M147.235 73.4362C166.694 73.4362 185.356 81.1542 199.115 94.8925C212.875 108.631 220.605 127.264 220.605 146.693H147.235V73.4362Z" fill="#D9D9D9"/>
<path d="M184.304 219.949C204.352 219.949 220.605 203.697 220.605 183.648C220.605 163.599 204.352 147.347 184.304 147.347C164.255 147.347 148.002 163.599 148.002 183.648C148.002 203.697 164.255 219.949 184.304 219.949Z" fill="#D9D9D9"/>
<path d="M37.1364 72.7822C57.185 72.7822 73.4376 56.5296 73.4376 36.4809C73.4376 16.4323 57.185 0.179731 37.1364 0.179731C17.0878 0.179731 0.835205 16.4323 0.835205 36.4809C0.835205 56.5296 17.0878 72.7822 37.1364 72.7822Z" fill="#D9D9D9"/>
</svg>
