<svg width="220" height="220" viewBox="0 0 220 220" fill="none" xmlns="http://www.w3.org/2000/svg">
<path d="M219.848 82.195C212.146 82.195 183.456 85.3698 156.999 90.4259C179.34 75.3163 201.799 57.2671 207.266 51.7994L168.228 12.7613C162.761 18.229 144.711 40.7465 129.602 63.0287C134.717 36.5722 137.833 7.88157 137.833 0.179779H82.6268C82.6268 7.88157 85.8016 36.5722 90.8577 63.0287C75.7481 40.6877 57.6989 18.229 52.2312 12.7613L13.2519 51.7994C18.7196 57.2671 41.237 75.3163 63.5193 90.4259C37.0628 85.311 8.37214 82.195 0.670349 82.195V137.401C8.37214 137.401 37.0628 134.226 63.5193 129.17C41.1782 144.28 18.7196 162.329 13.2519 167.797L52.29 206.835C57.7577 201.367 75.8069 178.85 90.9165 156.567C85.8016 183.024 82.6856 211.714 82.6856 219.416H137.892C137.892 211.714 134.717 183.024 129.661 156.567C144.77 178.908 162.82 201.367 168.287 206.835L207.325 167.797C201.858 162.329 179.34 144.28 157.058 129.17C183.514 134.285 212.205 137.401 219.907 137.401V82.195H219.848Z" fill="#D9D9D9"/>
</svg>
