<svg width="220" height="220" viewBox="0 0 220 220" fill="none" xmlns="http://www.w3.org/2000/svg">
<path d="M0 68.4606V109.9H35.1798C76.3717 109.9 109.706 79.2304 109.706 41.4541V0.0150146H74.5264C33.3345 0.0150146 0 30.6297 0 68.4606Z" fill="#D9D9D9"/>
<path d="M184.59 0.0149841C143.398 0.0149841 110.063 30.6843 110.063 68.4606V109.9H145.243C186.435 109.9 219.77 79.2304 219.77 41.4541V0.0149841H184.59Z" fill="#D9D9D9"/>
<path d="M0 178.345V219.785H35.1798C76.3717 219.785 109.706 189.115 109.706 151.339V109.9H74.5264C33.3345 109.9 0 140.569 0 178.345Z" fill="#D9D9D9"/>
<path d="M110.063 178.345V219.785H145.243C186.435 219.785 219.77 189.115 219.77 151.339V109.9H184.59C143.398 109.9 110.063 140.569 110.063 178.345Z" fill="#D9D9D9"/>
</svg>
