<svg width="221" height="221" viewBox="0 0 221 221" fill="none" xmlns="http://www.w3.org/2000/svg">
<path d="M0.636353 220.154C0.636353 189.81 25.2349 165.212 55.5787 165.212C85.9226 165.212 110.521 189.81 110.521 220.154H0.636353Z" fill="#D9D9D9"/>
<path d="M110.521 110.269C110.521 140.613 85.9226 165.212 55.5787 165.212C25.2349 165.212 0.636368 140.613 0.636368 110.269L110.521 110.269Z" fill="#D9D9D9"/>
<path d="M220.406 220.154C190.062 220.154 165.464 195.555 165.464 165.212C165.464 134.868 190.062 110.269 220.406 110.269V220.154Z" fill="#D9D9D9"/>
<path d="M110.521 110.269C140.865 110.269 165.464 134.868 165.464 165.212C165.464 195.555 140.865 220.154 110.521 220.154L110.521 110.269Z" fill="#D9D9D9"/>
<path d="M220.406 0.384377C220.406 30.7282 195.808 55.3268 165.464 55.3268C135.12 55.3268 110.521 30.7282 110.521 0.384377L220.406 0.384377Z" fill="#D9D9D9"/>
<path d="M110.521 110.269C110.521 79.9253 135.12 55.3268 165.463 55.3268C195.807 55.3268 220.406 79.9253 220.406 110.269L110.521 110.269Z" fill="#D9D9D9"/>
<path d="M0.636604 0.384524C30.9804 0.384523 55.579 24.9831 55.579 55.3269C55.579 85.6707 30.9804 110.269 0.636609 110.269L0.636604 0.384524Z" fill="#D9D9D9"/>
<path d="M110.521 110.269C80.1775 110.269 55.579 85.6707 55.579 55.3269C55.579 24.983 80.1775 0.384505 110.521 0.384504L110.521 110.269Z" fill="#D9D9D9"/>
</svg>
