<svg width="220" height="220" viewBox="0 0 220 220" fill="none" xmlns="http://www.w3.org/2000/svg">
<path d="M0 218.728H73.7486L37.3726 180.857L0 145.975V218.728Z" fill="#D9D9D9"/>
<path d="M0 145.878H73.7486L37.3726 108.007L0 73.1261V145.878Z" fill="#D9D9D9"/>
<path d="M0 72.7594H73.7486L37.3726 34.8885L0 0.00738862V72.7594Z" fill="#D9D9D9"/>
<path d="M72.729 218.727H146.478L110.102 180.857L72.729 145.975V218.727Z" fill="#D9D9D9"/>
<path d="M72.729 145.878H146.478L110.102 108.007L72.729 73.1261V145.878Z" fill="#D9D9D9"/>
<path d="M72.729 73.0287H146.478L110.102 35.1578L72.729 0.276676V73.0287Z" fill="#D9D9D9"/>
<path d="M145.458 219.217H219.207L182.831 181.346L145.458 146.465V219.217Z" fill="#D9D9D9"/>
<path d="M145.458 146.099H219.207L182.831 108.228L145.458 73.3467V146.099Z" fill="#D9D9D9"/>
<path d="M145.458 73.2493H219.207L182.831 35.3784L145.458 0.497318V73.2493Z" fill="#D9D9D9"/>
</svg>
